<?xml version="1.0" encoding="UTF-8"?>
<svg id="Layer_1" data-name="Layer 1" xmlns="http://www.w3.org/2000/svg" viewBox="0 0 777 777">
  <defs>
    <style>
      .cls-1 {
        fill: #2e9bea;
      }

      .cls-2 {
        fill: #3e3e3e;
      }

      .cls-3 {
        fill: #e7e7e6;
      }
    </style>
  </defs>
  <path class="cls-2" d="M713.26,0c5.72,2.3,11.89,3.19,17.65,5.49,19.27,7.72,36.5,25.4,42.68,45.34,1.39,4.49,1.72,9.29,3.41,13.67v649.52c-2.15,5.19-2.71,10.85-4.73,16.13-7.47,19.54-25.43,36.15-45.19,42.83-5.02,1.7-10.34,2.29-15.33,4.01H64.5c-4.26-1.91-9.06-2.16-13.49-3.58-20.74-6.63-39.32-23.95-46.46-44.59-1.7-4.92-2.16-10.28-4.54-14.81V63.74c2.05-5.86,3-12.04,5.29-17.85C12.41,27.9,28.19,12.66,46.09,5.49c5.76-2.3,11.93-3.19,17.65-5.49h649.52ZM630.55,452.24c13.66-44.26,12.75-92.49,2.28-137.34,17.61,2.01,38.19,8.76,50.83-7.97,16.47-21.78-9.81-49.32-19.86-68.92-3.68-7.18-3.84-6.92-.27-14.18,9.85-20.02,36.8-50.05,15.6-70.96-17.86-17.62-53.15-2.44-75.52-1.81-5.44.16-4.67-2.06-7.96-5-12.14-10.85-35.72-36.32-51.24-37.54-27.61-2.17-34.34,22.36-36.03,44.76-1.07.13-2.03-.07-3.05-.36-5.96-1.72-16.03-7.95-22.75-10.63C301.81,70.1,106.38,213.34,127.48,407.84c1.86,17.11,5.65,34.3,11.37,50.47-47.49,54.2-43.78,139.97,9.85,188.57,26.49,24,53.31,33.53,88.79,34.51.1,0,.86.76,1.83.79,18.89.41,32.08-10.18,33.86-29.21l-.11-212.42c-3.45-19.58-16.7-26.81-35.58-27.02-17.62-.2-41.04,5.22-56.91,12.9-5.76-26.04-6.95-51.23-2.91-77.65,18.04-118.06,131.62-196.08,248.91-172.53,15.3,3.07,29.86,9.6,44.05,14.24.64.21,1.55,2.77,3.6,2.24-.07,1.07-1.16,1.17-1.87,1.54-8.17,4.19-18.74,5.42-25.48,12.46-9.02,9.43-9.04,29-1.13,39.14,16.2,13.75,37.27,21.46,55.64,31.99,1.35,6.85.81,14.68,1.73,21.42,3.51,25.48,9.96,58.65,43.51,54.25,13.08-1.71,25.81-20.49,36.1-28.39.76-.58.96-1.47,2.28-1.13,7.44,32.53,9.61,66.61,2.28,99.4-15.13-5.87-34.61-10.11-50.84-9.86-15.06.23-27.23,6.49-32.26,21.23-2.55,73.73-.5,147.97-1.04,221.88,2.9,15.41,15.71,25.95,31.47,25.53.98-.03,1.72-.78,1.83-.79,119.98-5.31,177.09-142.09,94.09-229.15ZM726.72,726.34c-11.53,1.94-14.42,18.56-3.86,24.74,4.65,2.73,19.62,2.54,24.17-.64,7.89-5.51,7.63-17.11-.42-22.35-3.9-2.54-15.24-2.53-19.89-1.75Z"/>
  <path class="cls-3" d="M138.86,458.31c-5.72-16.17-9.52-33.36-11.37-50.47-21.11-194.5,174.33-337.74,355.1-265.56,6.72,2.68,16.79,8.92,22.75,10.63,1.02.29,1.99.5,3.05.36,1.7-22.4,8.42-46.93,36.03-44.76,15.51,1.22,39.09,26.69,51.24,37.54,3.29,2.94,2.52,5.16,7.96,5,22.37-.64,57.66-15.81,75.52,1.81,21.2,20.91-5.75,50.94-15.6,70.96-3.57,7.26-3.42,7.01.27,14.18,10.05,19.6,36.33,47.14,19.86,68.92-12.65,16.73-33.23,9.98-50.83,7.97,10.47,44.85,11.38,93.07-2.28,137.34-10.47-10.98-29.11-23.35-43.25-28.83,7.33-32.79,5.16-66.87-2.28-99.4-1.31-.34-1.52.55-2.28,1.13-10.29,7.9-23.03,26.68-36.1,28.39-33.54,4.4-40-28.77-43.51-54.25-.93-6.73-.39-14.56-1.73-21.42-18.37-10.53-39.44-18.24-55.64-31.99-7.9-10.14-7.89-29.72,1.13-39.14,6.74-7.04,17.31-8.27,25.48-12.46.71-.37,1.8-.47,1.87-1.54-2.05.53-2.96-2.03-3.6-2.24-14.19-4.64-28.74-11.16-44.05-14.24-117.29-23.55-230.87,54.47-248.91,172.53-4.04,26.42-2.85,51.61,2.91,77.65-12.27,5.94-32.74,21.6-41.73,31.87ZM539.29,132.18c-1.29.38-2.55,2-2.77,3.32-4.07,17.38-4.41,37.83-8.89,54.85-2.3,8.74-6.14,11.41-13.96,14.88-15.03,6.67-31.97,10.89-47.21,17.28-5.13,4-2.84,6.61,1.49,9.53,12.32,8.32,28.58,14.56,41.71,22.03,10.66,6.06,16.03,8.82,18.25,21.96,2.54,15.08,2.71,30.82,5.75,45.85,1.36,6.7,3.02,10.23,10.36,6.26,12.8-11.3,24.97-26.38,37.96-37.15,5.1-4.23,10.17-6.71,17.06-6.44,18.9.76,40.85,8.23,60.05,9.79,4.02.01,6.75-2.56,5.03-6.54-7.56-15.51-19.03-30.12-26.87-45.23-3.8-7.33-5.47-12.35-1.92-20.39,5.77-13.08,16.86-27.57,23.69-40.8,2.76-5.34,7.72-11.84-1.43-13.62l-55.51,9.05c-6.09.28-11.63-1.94-16.3-5.68-12.9-10.33-24.76-24.97-37.57-35.27-2.54-2.04-5.33-4.72-8.92-3.67Z"/>
  <path class="cls-1" d="M587.3,423.4c14.14,5.49,32.78,17.85,43.25,28.83,83,87.06,25.89,223.84-94.09,229.15v-267.85c16.23-.25,35.71,3.99,50.84,9.86Z"/>
  <path class="cls-1" d="M237.5,413.54v267.85c-35.48-.98-62.3-10.51-88.79-34.51-53.64-48.6-57.35-134.37-9.85-188.57,9-10.27,29.46-25.93,41.73-31.87,15.87-7.68,39.29-13.09,56.91-12.9Z"/>
  <path class="cls-3" d="M237.5,681.39v-267.85c18.89.21,32.14,7.44,35.58,27.02l.11,212.42c-1.78,19.03-14.98,29.61-33.86,29.21-.98-.02-1.73-.78-1.83-.79Z"/>
  <path class="cls-3" d="M536.46,413.54v267.85c-.11,0-.85.76-1.83.79-15.76.42-28.57-10.12-31.47-25.53.55-73.91-1.51-148.15,1.04-221.88,5.03-14.74,17.21-21,32.26-21.23Z"/>
  <path class="cls-1" d="M539.29,132.18c3.58-1.05,6.37,1.62,8.92,3.67,12.81,10.3,24.67,24.94,37.57,35.27,4.67,3.74,10.21,5.95,16.3,5.68l55.51-9.05c9.15,1.78,4.19,8.28,1.43,13.62-6.83,13.23-17.92,27.72-23.69,40.8-3.55,8.04-1.88,13.06,1.92,20.39,7.84,15.11,19.32,29.72,26.87,45.23,1.72,3.99-1.01,6.56-5.03,6.54-19.2-1.56-41.15-9.03-60.05-9.79-6.89-.28-11.96,2.21-17.06,6.44-13,10.77-25.16,25.86-37.96,37.15-7.34,3.97-9.01.44-10.36-6.26-3.04-15.03-3.2-30.78-5.75-45.85-2.22-13.14-7.59-15.9-18.25-21.96-13.13-7.47-29.39-13.7-41.71-22.03-4.33-2.93-6.62-5.54-1.49-9.53,15.24-6.4,32.18-10.61,47.21-17.28,7.82-3.47,11.65-6.14,13.96-14.88,4.48-17.01,4.82-37.47,8.89-54.85.22-1.32,1.48-2.94,2.77-3.32ZM555.23,173.9c-1.91.4-3.77,2.31-4.19,4.2-.98,9.47.01,20.93-1.73,30.14-.67,3.52-2.7,5.61-5.81,7.09-5.82,2.78-32.19,7.94-34.28,11.25-1.03,1.62-1.28,4.67-.45,6.38,9.64,6.23,22.59,7.5,32.77,12.76,2.17,1.12,4.53,2.63,5.9,4.73,4.62,7.1.28,27.01,1.95,35.99.65,3.51,5.2,4.49,7.99,2.71,6.48-6.41,11.84-14,18.16-20.54,1.62-1.67,6.12-6.67,7.93-7.24,6.78-2.12,26.09,5.17,34.58,5.71,5.28.34,9.28-.49,7.54-6.78-4.48-7.88-13.44-15.67-17.66-23.31-2.32-4.21-2.32-6.25-.27-10.62,2.64-5.65,19.04-25.92,19.05-29.46,0-2.46-2.97-5.02-5.44-4.79-7.42.7-21.15,7.3-29.41,9.34-5.25,1.29-7.91,1.89-12.17-2.24l-20.79-24.73c-1.11-.96-2.34-.86-3.66-.58Z"/>
  <path class="cls-3" d="M555.23,173.9c1.32-.28,2.56-.38,3.66.58l20.79,24.73c4.26,4.13,6.92,3.53,12.17,2.24,8.26-2.04,21.99-8.63,29.41-9.34,2.48-.23,5.45,2.33,5.44,4.79,0,3.54-16.41,23.81-19.05,29.46-2.05,4.37-2.05,6.41.27,10.62,4.22,7.64,13.17,15.43,17.66,23.31,1.74,6.29-2.26,7.12-7.54,6.78-8.49-.54-27.8-7.83-34.58-5.71-1.82.57-6.32,5.56-7.93,7.24-6.32,6.54-11.67,14.13-18.16,20.54-2.79,1.77-7.34.8-7.99-2.71-1.67-8.98,2.67-28.88-1.95-35.99-1.36-2.1-3.72-3.61-5.9-4.73-10.17-5.26-23.13-6.53-32.77-12.76-.83-1.71-.57-4.76.45-6.38,2.09-3.31,28.46-8.47,34.28-11.25,3.11-1.48,5.15-3.57,5.81-7.09,1.74-9.21.75-20.68,1.73-30.14.42-1.89,2.28-3.8,4.19-4.2Z"/>
  <rect class="cls-2" x="688.98" y="702.64" width="63.74" height="52.36"/>
</svg>